<mxfile host="app.diagrams.net" modified="2023-07-23T08:50:16.553Z" agent="Mozilla/5.0 (Macintosh; Intel Mac OS X 10_15_7) AppleWebKit/605.1.15 (KHTML, like Gecko) Version/16.5.1 Safari/605.1.15" version="21.6.5" etag="iQEMUHfZ2lo-e3b0FlsV" type="github">
  <diagram name="第 1 页" id="xso_ZdDvHN7N3BqeAEgh">
    <mxGraphModel>
      <root>
        <mxCell id="0" />
        <mxCell id="1" parent="0" />
      </root>
    </mxGraphModel>
  </diagram>
</mxfile>
